<svg width="32" height="32" viewBox="0 0 32 32" fill="none" xmlns="http://www.w3.org/2000/svg">
<path fill-rule="evenodd" clip-rule="evenodd" d="M30.2067 8.26C30.7567 9.21 30.0167 10.32 28.9267 10.32H3.07668C1.98668 10.32 1.25668 9.21 1.79668 8.26C4.63668 3.32 9.93668 0 16.0067 0C22.0667 0 27.3667 3.32 30.2067 8.26ZM10.0167 31.9C10.9567 32.27 11.9067 31.53 11.9067 30.52V21.16C11.9067 19.73 10.7567 18.58 9.33668 18.58H1.47668C0.546675 18.58 -0.173325 19.4 0.0366753 20.31C1.27668 25.62 5.05668 29.94 10.0167 31.9ZM31.9667 20.31C32.1767 19.4 31.4567 18.58 30.5267 18.58H22.6667C21.2467 18.58 20.0967 19.73 20.0967 21.16V30.52C20.0967 31.53 21.0467 32.27 21.9867 31.9C26.9467 29.94 30.7267 25.62 31.9667 20.31Z" fill="#14B890"/>
</svg>
